<svg width="111" height="13" viewBox="0 0 111 13" fill="none" xmlns="http://www.w3.org/2000/svg">
<path d="M1.104 12C0.997333 12 0.906667 11.9627 0.832 11.888C0.757333 11.8133 0.72 11.7227 0.72 11.616V10.8C0.72 10.512 0.853333 10.2613 1.12 10.048L3.648 7.536C4.74667 6.672 5.50933 6 5.936 5.52C6.37333 5.02933 6.592 4.54933 6.592 4.08C6.592 3.57867 6.45333 3.184 6.176 2.896C5.90933 2.608 5.504 2.464 4.96 2.464C4.42667 2.464 4.00533 2.624 3.696 2.944C3.38667 3.25333 3.19467 3.65867 3.12 4.16C3.088 4.288 3.02933 4.384 2.944 4.448C2.85867 4.50133 2.76267 4.528 2.656 4.528H1.232C1.136 4.528 1.056 4.496 0.992 4.432C0.928 4.368 0.896 4.29333 0.896 4.208C0.917333 3.57867 1.088 2.992 1.408 2.448C1.728 1.89333 2.192 1.45067 2.8 1.12C3.408 0.778666 4.12267 0.608 4.944 0.608C5.79733 0.608 6.51733 0.757333 7.104 1.056C7.70133 1.344 8.14933 1.744 8.448 2.256C8.74667 2.768 8.896 3.34933 8.896 4C8.896 4.71467 8.69333 5.36 8.288 5.936C7.89333 6.512 7.28533 7.13067 6.464 7.792L4.192 10.096H8.752C8.86933 10.096 8.96 10.1333 9.024 10.208C9.09867 10.272 9.136 10.3627 9.136 10.48V11.616C9.136 11.7227 9.09867 11.8133 9.024 11.888C8.96 11.9627 8.86933 12 8.752 12H1.104ZM15.1543 12.16C13.7356 12.16 12.6743 11.7653 11.9703 10.976C11.2769 10.1867 10.8983 9.152 10.8343 7.872C10.8236 7.584 10.8183 7.09333 10.8183 6.4C10.8183 5.696 10.8236 5.19467 10.8343 4.896C10.8876 3.63733 11.2716 2.61333 11.9863 1.824C12.7009 1.03467 13.7569 0.639999 15.1543 0.639999C16.5623 0.639999 17.6236 1.03467 18.3383 1.824C19.0529 2.61333 19.4316 3.63733 19.4743 4.896C19.4956 5.19467 19.5063 5.696 19.5063 6.4C19.5063 7.09333 19.4956 7.584 19.4743 7.872C19.4209 9.152 19.0423 10.1867 18.3383 10.976C17.6449 11.7653 16.5836 12.16 15.1543 12.16ZM15.1543 10.32C15.8263 10.32 16.3276 10.1013 16.6583 9.664C16.9889 9.216 17.1649 8.592 17.1863 7.792C17.2076 7.17333 17.2183 6.704 17.2183 6.384C17.2183 6.032 17.2076 5.568 17.1863 4.992C17.1649 4.20267 16.9889 3.584 16.6583 3.136C16.3276 2.688 15.8263 2.464 15.1543 2.464C14.4929 2.464 13.9916 2.688 13.6503 3.136C13.3196 3.584 13.1436 4.20267 13.1223 4.992C13.1116 5.28 13.1063 5.744 13.1063 6.384C13.1063 7.01333 13.1116 7.48267 13.1223 7.792C13.1436 8.592 13.3196 9.216 13.6503 9.664C13.9916 10.1013 14.4929 10.32 15.1543 10.32ZM21.5259 12C21.4192 12 21.3285 11.9627 21.2539 11.888C21.1792 11.8133 21.1419 11.7227 21.1419 11.616V10.8C21.1419 10.512 21.2752 10.2613 21.5419 10.048L24.0699 7.536C25.1685 6.672 25.9312 6 26.3579 5.52C26.7952 5.02933 27.0139 4.54933 27.0139 4.08C27.0139 3.57867 26.8752 3.184 26.5979 2.896C26.3312 2.608 25.9259 2.464 25.3819 2.464C24.8485 2.464 24.4272 2.624 24.1179 2.944C23.8085 3.25333 23.6165 3.65867 23.5419 4.16C23.5099 4.288 23.4512 4.384 23.3659 4.448C23.2805 4.50133 23.1845 4.528 23.0779 4.528H21.6539C21.5579 4.528 21.4779 4.496 21.4139 4.432C21.3499 4.368 21.3179 4.29333 21.3179 4.208C21.3392 3.57867 21.5099 2.992 21.8299 2.448C22.1499 1.89333 22.6139 1.45067 23.2219 1.12C23.8299 0.778666 24.5445 0.608 25.3659 0.608C26.2192 0.608 26.9392 0.757333 27.5259 1.056C28.1232 1.344 28.5712 1.744 28.8699 2.256C29.1685 2.768 29.3179 3.34933 29.3179 4C29.3179 4.71467 29.1152 5.36 28.7099 5.936C28.3152 6.512 27.7072 7.13067 26.8859 7.792L24.6139 10.096H29.1739C29.2912 10.096 29.3819 10.1333 29.4459 10.208C29.5205 10.272 29.5579 10.3627 29.5579 10.48V11.616C29.5579 11.7227 29.5205 11.8133 29.4459 11.888C29.3819 11.9627 29.2912 12 29.1739 12H21.5259ZM35.5761 12.16C34.1575 12.16 33.0961 11.7653 32.3921 10.976C31.6988 10.1867 31.3201 9.152 31.2561 7.872C31.2455 7.584 31.2401 7.09333 31.2401 6.4C31.2401 5.696 31.2455 5.19467 31.2561 4.896C31.3095 3.63733 31.6935 2.61333 32.4081 1.824C33.1228 1.03467 34.1788 0.639999 35.5761 0.639999C36.9841 0.639999 38.0455 1.03467 38.7601 1.824C39.4748 2.61333 39.8535 3.63733 39.8961 4.896C39.9175 5.19467 39.9281 5.696 39.9281 6.4C39.9281 7.09333 39.9175 7.584 39.8961 7.872C39.8428 9.152 39.4641 10.1867 38.7601 10.976C38.0668 11.7653 37.0055 12.16 35.5761 12.16ZM35.5761 10.32C36.2481 10.32 36.7495 10.1013 37.0801 9.664C37.4108 9.216 37.5868 8.592 37.6081 7.792C37.6295 7.17333 37.6401 6.704 37.6401 6.384C37.6401 6.032 37.6295 5.568 37.6081 4.992C37.5868 4.20267 37.4108 3.584 37.0801 3.136C36.7495 2.688 36.2481 2.464 35.5761 2.464C34.9148 2.464 34.4135 2.688 34.0721 3.136C33.7415 3.584 33.5655 4.20267 33.5441 4.992C33.5335 5.28 33.5281 5.744 33.5281 6.384C33.5281 7.01333 33.5335 7.48267 33.5441 7.792C33.5655 8.592 33.7415 9.216 34.0721 9.664C34.4135 10.1013 34.9148 10.32 35.5761 10.32ZM46.26 12C46.1533 12 46.0627 11.968 45.988 11.904C45.924 11.8293 45.892 11.7387 45.892 11.632V1.184C45.892 1.06667 45.924 0.976 45.988 0.912C46.0627 0.837333 46.1533 0.799999 46.26 0.799999H47.06C47.2307 0.799999 47.3693 0.885333 47.476 1.056L50.852 7.52L54.26 1.056C54.2813 0.991999 54.324 0.933332 54.388 0.879999C54.4627 0.826666 54.5533 0.799999 54.66 0.799999H55.444C55.5613 0.799999 55.652 0.837333 55.716 0.912C55.7907 0.976 55.828 1.06667 55.828 1.184V11.632C55.828 11.7387 55.7907 11.8293 55.716 11.904C55.6413 11.968 55.5507 12 55.444 12H54.66C54.5533 12 54.4627 11.968 54.388 11.904C54.324 11.8293 54.292 11.7387 54.292 11.632V3.76L51.62 8.976C51.5133 9.2 51.3427 9.312 51.108 9.312H50.612C50.3773 9.312 50.2067 9.2 50.1 8.976L47.412 3.76V11.632C47.412 11.7387 47.3747 11.8293 47.3 11.904C47.236 11.968 47.1507 12 47.044 12H46.26ZM61.9551 12C61.8485 12 61.7578 11.968 61.6831 11.904C61.6191 11.8293 61.5871 11.7387 61.5871 11.632V7.856L57.7311 1.328C57.7311 1.30667 57.7258 1.27467 57.7151 1.232C57.6938 1.18933 57.6831 1.152 57.6831 1.12C57.6831 1.03467 57.7151 0.96 57.7791 0.896C57.8431 0.831999 57.9178 0.799999 58.0031 0.799999H58.8351C59.0165 0.799999 59.1551 0.890666 59.2511 1.072L62.3711 6.256L65.4911 1.072C65.6085 0.890666 65.7525 0.799999 65.9231 0.799999H66.7391C66.8351 0.799999 66.9151 0.831999 66.9791 0.896C67.0431 0.96 67.0751 1.03467 67.0751 1.12C67.0751 1.17333 67.0538 1.24267 67.0111 1.328L63.1711 7.856V11.632C63.1711 11.7387 63.1338 11.8293 63.0591 11.904C62.9845 11.968 62.8938 12 62.7871 12H61.9551ZM69.1945 12C69.0878 12 68.9972 11.9627 68.9225 11.888C68.8478 11.8133 68.8105 11.7227 68.8105 11.616V1.2C68.8105 1.08267 68.8425 0.986666 68.9065 0.912C68.9812 0.837333 69.0772 0.799999 69.1945 0.799999H73.8345C75.0825 0.799999 76.0105 1.07733 76.6185 1.632C77.2372 2.176 77.5465 2.92267 77.5465 3.872C77.5465 4.42667 77.4078 4.90133 77.1305 5.296C76.8638 5.68 76.5492 5.95733 76.1865 6.128C76.6345 6.33067 77.0078 6.66133 77.3065 7.12C77.6158 7.57867 77.7705 8.10133 77.7705 8.688C77.7705 9.68 77.4345 10.48 76.7625 11.088C76.1012 11.696 75.1678 12 73.9625 12H69.1945ZM73.5465 5.392C74.1012 5.392 74.5225 5.25867 74.8105 4.992C75.0985 4.72533 75.2425 4.368 75.2425 3.92C75.2425 3.46133 75.0985 3.10933 74.8105 2.864C74.5225 2.608 74.1012 2.48 73.5465 2.48H71.0345V5.392H73.5465ZM73.7065 10.304C74.2612 10.304 74.6932 10.1547 75.0025 9.856C75.3118 9.54667 75.4665 9.15733 75.4665 8.688C75.4665 8.208 75.3118 7.81867 75.0025 7.52C74.6932 7.21067 74.2612 7.056 73.7065 7.056H71.0345V10.304H73.7065ZM84.0833 12.16C82.6326 12.16 81.5019 11.792 80.6913 11.056C79.8806 10.32 79.4539 9.22667 79.4113 7.776C79.4006 7.46667 79.3953 7.01333 79.3953 6.416C79.3953 5.808 79.4006 5.34933 79.4113 5.04C79.4539 3.62133 79.8913 2.53333 80.7233 1.776C81.5553 1.01867 82.6753 0.639999 84.0833 0.639999C85.4913 0.639999 86.6113 1.01867 87.4433 1.776C88.2859 2.53333 88.7286 3.62133 88.7713 5.04C88.7926 5.65867 88.8033 6.11733 88.8033 6.416C88.8033 6.704 88.7926 7.15733 88.7713 7.776C88.7179 9.22667 88.2859 10.32 87.4753 11.056C86.6646 11.792 85.5339 12.16 84.0833 12.16ZM84.0833 10.32C84.7979 10.32 85.3686 10.1067 85.7953 9.68C86.2219 9.24267 86.4513 8.58133 86.4833 7.696C86.5046 7.056 86.5153 6.624 86.5153 6.4C86.5153 6.15467 86.5046 5.72267 86.4833 5.104C86.4513 4.21867 86.2219 3.56267 85.7953 3.136C85.3686 2.69867 84.7979 2.48 84.0833 2.48C83.3793 2.48 82.8139 2.69867 82.3873 3.136C81.9606 3.56267 81.7313 4.21867 81.6993 5.104C81.6886 5.41333 81.6833 5.84533 81.6833 6.4C81.6833 6.944 81.6886 7.376 81.6993 7.696C81.7313 8.58133 81.9553 9.24267 82.3713 9.68C82.7979 10.1067 83.3686 10.32 84.0833 10.32ZM95.2083 12.16C93.7576 12.16 92.6269 11.792 91.8163 11.056C91.0056 10.32 90.5789 9.22667 90.5363 7.776C90.5256 7.46667 90.5203 7.01333 90.5203 6.416C90.5203 5.808 90.5256 5.34933 90.5363 5.04C90.5789 3.62133 91.0163 2.53333 91.8483 1.776C92.6803 1.01867 93.8003 0.639999 95.2083 0.639999C96.6163 0.639999 97.7363 1.01867 98.5683 1.776C99.4109 2.53333 99.8536 3.62133 99.8963 5.04C99.9176 5.65867 99.9283 6.11733 99.9283 6.416C99.9283 6.704 99.9176 7.15733 99.8963 7.776C99.8429 9.22667 99.4109 10.32 98.6003 11.056C97.7896 11.792 96.6589 12.16 95.2083 12.16ZM95.2083 10.32C95.9229 10.32 96.4936 10.1067 96.9203 9.68C97.3469 9.24267 97.5763 8.58133 97.6083 7.696C97.6296 7.056 97.6403 6.624 97.6403 6.4C97.6403 6.15467 97.6296 5.72267 97.6083 5.104C97.5763 4.21867 97.3469 3.56267 96.9203 3.136C96.4936 2.69867 95.9229 2.48 95.2083 2.48C94.5043 2.48 93.9389 2.69867 93.5123 3.136C93.0856 3.56267 92.8563 4.21867 92.8243 5.104C92.8136 5.41333 92.8083 5.84533 92.8083 6.4C92.8083 6.944 92.8136 7.376 92.8243 7.696C92.8563 8.58133 93.0803 9.24267 93.4963 9.68C93.9229 10.1067 94.4936 10.32 95.2083 10.32ZM102.413 12C102.307 12 102.216 11.9627 102.141 11.888C102.067 11.8133 102.029 11.7227 102.029 11.616V1.2C102.029 1.08267 102.061 0.986666 102.125 0.912C102.2 0.837333 102.296 0.799999 102.413 0.799999H103.821C103.939 0.799999 104.035 0.837333 104.109 0.912C104.184 0.986666 104.221 1.08267 104.221 1.2V4.944L107.837 1.088C107.976 0.895999 108.184 0.799999 108.461 0.799999H110.045C110.131 0.799999 110.205 0.831999 110.269 0.896C110.344 0.96 110.381 1.04 110.381 1.136C110.381 1.21067 110.36 1.27467 110.317 1.328L105.917 6.16L110.621 11.456C110.675 11.52 110.701 11.5893 110.701 11.664C110.701 11.76 110.664 11.84 110.589 11.904C110.525 11.968 110.451 12 110.365 12H108.717C108.451 12 108.243 11.904 108.093 11.712L104.221 7.472V11.616C104.221 11.7333 104.184 11.8293 104.109 11.904C104.035 11.968 103.939 12 103.821 12H102.413Z" fill="white"/>
</svg>
