<svg width="238" height="15" viewBox="0 0 238 15" fill="none" xmlns="http://www.w3.org/2000/svg">
<path d="M6.40718 1.79028L8.24676 5.51706L12.3605 6.11835L9.38385 9.01762L10.0863 13.1135L6.40718 11.1787L2.72803 13.1135L3.43052 9.01762L0.453857 6.11835L4.56761 5.51706L6.40718 1.79028Z" fill="#FF971D"/>
<path d="M25.3138 1.79028L27.1534 5.51706L31.2671 6.11835L28.2905 9.01762L28.993 13.1135L25.3138 11.1787L21.6346 13.1135L22.3371 9.01762L19.3605 6.11835L23.4742 5.51706L25.3138 1.79028Z" fill="#FF971D"/>
<path d="M44.2205 1.79028L46.0601 5.51706L50.1739 6.11835L47.1972 9.01762L47.8997 13.1135L44.2205 11.1787L40.5414 13.1135L41.2439 9.01762L38.2672 6.11835L42.381 5.51706L44.2205 1.79028Z" fill="#FF971D"/>
<path d="M63.1272 1.79028L64.9667 5.51706L69.0805 6.11835L66.1038 9.01762L66.8063 13.1135L63.1272 11.1787L59.448 13.1135L60.1505 9.01762L57.1738 6.11835L61.2876 5.51706L63.1272 1.79028Z" fill="#FF971D"/>
<path d="M82.0338 1.79028L83.8733 5.51706L87.9871 6.11835L85.0104 9.01762L85.7129 13.1135L82.0338 11.1787L78.3546 13.1135L79.0571 9.01762L76.0804 6.11835L80.1942 5.51706L82.0338 1.79028Z" fill="#DEDEDE"/>
<path d="M118.403 13.4519C118.296 13.4519 118.211 13.4199 118.147 13.3559C118.083 13.2919 118.051 13.2066 118.051 13.0999V3.5639L115.187 5.7719C115.102 5.82524 115.027 5.8519 114.963 5.8519C114.856 5.8519 114.766 5.8039 114.691 5.7079L114.515 5.4839C114.462 5.40924 114.435 5.33457 114.435 5.2599C114.435 5.15324 114.483 5.06257 114.579 4.9879L117.987 2.3639C118.094 2.28924 118.232 2.2519 118.403 2.2519H118.707C118.814 2.2519 118.899 2.2839 118.963 2.3479C119.027 2.4119 119.059 2.49724 119.059 2.6039V13.0999C119.059 13.2066 119.027 13.2919 118.963 13.3559C118.899 13.4199 118.814 13.4519 118.707 13.4519H118.403ZM121.546 14.6519C121.461 14.6519 121.397 14.6199 121.354 14.5559C121.322 14.5132 121.306 14.4652 121.306 14.4119C121.306 14.3799 121.311 14.3479 121.322 14.3159L121.626 12.3959C121.658 12.1079 121.791 11.9639 122.026 11.9639H122.746C122.821 11.9639 122.879 11.9906 122.922 12.0439C122.965 12.0972 122.986 12.1559 122.986 12.2199C122.986 12.3159 122.965 12.4119 122.922 12.5079L122.234 14.3159C122.181 14.4332 122.122 14.5186 122.058 14.5719C122.005 14.6252 121.925 14.6519 121.818 14.6519H121.546ZM126.689 13.4519C126.593 13.4519 126.513 13.4199 126.449 13.3559C126.396 13.2812 126.369 13.1959 126.369 13.0999C126.369 13.0359 126.396 12.9666 126.449 12.8919L128.977 9.3399C128.657 9.42524 128.31 9.4679 127.937 9.4679C127.126 9.4679 126.433 9.2919 125.857 8.9399C125.292 8.5879 124.865 8.12924 124.577 7.5639C124.289 6.99857 124.145 6.40657 124.145 5.7879C124.145 5.16924 124.289 4.57724 124.577 4.0119C124.865 3.44657 125.292 2.9879 125.857 2.6359C126.433 2.27324 127.126 2.0919 127.937 2.0919C128.748 2.0919 129.441 2.27324 130.017 2.6359C130.593 2.9879 131.025 3.44657 131.313 4.0119C131.601 4.57724 131.745 5.16924 131.745 5.7879C131.745 6.34257 131.654 6.83324 131.473 7.2599C131.292 7.68657 131.068 8.0919 130.801 8.4759L127.505 13.1319C127.494 13.1532 127.462 13.1959 127.409 13.2599C127.366 13.3132 127.308 13.3612 127.233 13.4039C127.169 13.4359 127.094 13.4519 127.009 13.4519H126.689ZM127.937 8.5079C128.438 8.5079 128.902 8.3959 129.329 8.1719C129.756 7.9479 130.097 7.6279 130.353 7.2119C130.609 6.7959 130.737 6.32124 130.737 5.7879C130.737 5.2439 130.609 4.7639 130.353 4.3479C130.097 3.9319 129.756 3.6119 129.329 3.3879C128.902 3.1639 128.438 3.0519 127.937 3.0519C127.436 3.0519 126.972 3.1639 126.545 3.3879C126.118 3.6119 125.777 3.9319 125.521 4.3479C125.276 4.7639 125.153 5.2439 125.153 5.7879C125.153 6.3319 125.276 6.8119 125.521 7.2279C125.777 7.63324 126.118 7.9479 126.545 8.1719C126.972 8.3959 127.436 8.5079 127.937 8.5079ZM137.605 13.6119C136.859 13.6119 136.181 13.4839 135.573 13.2279C134.976 12.9719 134.501 12.5932 134.149 12.0919C133.797 11.5906 133.621 10.9932 133.621 10.2999C133.621 9.63857 133.781 9.0679 134.101 8.5879C134.421 8.1079 134.864 7.73457 135.429 7.4679C134.981 7.22257 134.635 6.89724 134.389 6.4919C134.144 6.0759 134.021 5.59057 134.021 5.0359C134.021 4.1079 134.357 3.3879 135.029 2.8759C135.712 2.35324 136.571 2.0919 137.605 2.0919C138.64 2.0919 139.493 2.35324 140.165 2.8759C140.848 3.3879 141.189 4.1079 141.189 5.0359C141.189 5.59057 141.061 6.0759 140.805 6.4919C140.56 6.89724 140.219 7.22257 139.781 7.4679C140.347 7.73457 140.789 8.1079 141.109 8.5879C141.429 9.0679 141.589 9.63857 141.589 10.2999C141.589 10.9932 141.413 11.5906 141.061 12.0919C140.709 12.5932 140.229 12.9719 139.621 13.2279C139.024 13.4839 138.352 13.6119 137.605 13.6119ZM137.605 7.0039C138.331 6.98257 138.939 6.7959 139.429 6.4439C139.931 6.0919 140.181 5.62257 140.181 5.0359C140.181 4.4279 139.936 3.9479 139.445 3.5959C138.955 3.23324 138.341 3.0519 137.605 3.0519C136.869 3.0519 136.256 3.23324 135.765 3.5959C135.275 3.9479 135.029 4.4279 135.029 5.0359C135.029 5.6439 135.275 6.1239 135.765 6.4759C136.256 6.8279 136.869 7.0039 137.605 7.0039ZM137.605 12.6519C138.448 12.6519 139.152 12.4386 139.717 12.0119C140.293 11.5852 140.581 11.0146 140.581 10.2999C140.581 9.5959 140.299 9.03057 139.733 8.6039C139.168 8.17724 138.459 7.9639 137.605 7.9639C136.752 7.9639 136.043 8.17724 135.477 8.6039C134.912 9.03057 134.629 9.5959 134.629 10.2999C134.629 11.0146 134.912 11.5852 135.477 12.0119C136.053 12.4386 136.763 12.6519 137.605 12.6519ZM147.528 13.6119C146.781 13.6119 146.104 13.4839 145.496 13.2279C144.898 12.9719 144.424 12.5932 144.072 12.0919C143.72 11.5906 143.544 10.9932 143.544 10.2999C143.544 9.63857 143.704 9.0679 144.024 8.5879C144.344 8.1079 144.786 7.73457 145.352 7.4679C144.904 7.22257 144.557 6.89724 144.312 6.4919C144.066 6.0759 143.944 5.59057 143.944 5.0359C143.944 4.1079 144.28 3.3879 144.952 2.8759C145.634 2.35324 146.493 2.0919 147.528 2.0919C148.562 2.0919 149.416 2.35324 150.088 2.8759C150.77 3.3879 151.112 4.1079 151.112 5.0359C151.112 5.59057 150.984 6.0759 150.728 6.4919C150.482 6.89724 150.141 7.22257 149.704 7.4679C150.269 7.73457 150.712 8.1079 151.032 8.5879C151.352 9.0679 151.512 9.63857 151.512 10.2999C151.512 10.9932 151.336 11.5906 150.984 12.0919C150.632 12.5932 150.152 12.9719 149.544 13.2279C148.946 13.4839 148.274 13.6119 147.528 13.6119ZM147.528 7.0039C148.253 6.98257 148.861 6.7959 149.352 6.4439C149.853 6.0919 150.104 5.62257 150.104 5.0359C150.104 4.4279 149.858 3.9479 149.368 3.5959C148.877 3.23324 148.264 3.0519 147.528 3.0519C146.792 3.0519 146.178 3.23324 145.688 3.5959C145.197 3.9479 144.952 4.4279 144.952 5.0359C144.952 5.6439 145.197 6.1239 145.688 6.4759C146.178 6.8279 146.792 7.0039 147.528 7.0039ZM147.528 12.6519C148.37 12.6519 149.074 12.4386 149.64 12.0119C150.216 11.5852 150.504 11.0146 150.504 10.2999C150.504 9.5959 150.221 9.03057 149.656 8.6039C149.09 8.17724 148.381 7.9639 147.528 7.9639C146.674 7.9639 145.965 8.17724 145.4 8.6039C144.834 9.03057 144.552 9.5959 144.552 10.2999C144.552 11.0146 144.834 11.5852 145.4 12.0119C145.976 12.4386 146.685 12.6519 147.528 12.6519ZM153.471 14.6519C153.386 14.6519 153.322 14.6199 153.279 14.5559C153.247 14.5132 153.231 14.4652 153.231 14.4119C153.231 14.3799 153.236 14.3479 153.247 14.3159L153.551 12.3959C153.583 12.1079 153.716 11.9639 153.951 11.9639H154.671C154.746 11.9639 154.804 11.9906 154.847 12.0439C154.89 12.0972 154.911 12.1559 154.911 12.2199C154.911 12.3159 154.89 12.4119 154.847 12.5079L154.159 14.3159C154.106 14.4332 154.047 14.5186 153.983 14.5719C153.93 14.6252 153.85 14.6519 153.743 14.6519H153.471ZM157.332 13.4519C157.225 13.4519 157.14 13.4199 157.076 13.3559C157.012 13.2919 156.98 13.2066 156.98 13.0999V12.8599C156.98 12.6466 157.113 12.4226 157.38 12.1879L161.524 8.0439C162.11 7.4999 162.505 7.04124 162.708 6.6679C162.91 6.29457 163.012 5.8519 163.012 5.3399C163.012 4.62524 162.804 4.06524 162.388 3.6599C161.982 3.25457 161.401 3.0519 160.644 3.0519C159.929 3.0519 159.358 3.2599 158.932 3.6759C158.505 4.0919 158.249 4.6519 158.164 5.3559C158.153 5.47324 158.105 5.5639 158.02 5.6279C157.945 5.6919 157.87 5.7239 157.796 5.7239H157.476C157.369 5.7239 157.284 5.69724 157.22 5.6439C157.166 5.5799 157.14 5.50524 157.14 5.4199C157.161 4.89724 157.3 4.3799 157.556 3.8679C157.812 3.3559 158.201 2.93457 158.724 2.6039C159.246 2.26257 159.886 2.0919 160.644 2.0919C161.785 2.0919 162.633 2.40124 163.188 3.0199C163.742 3.63857 164.02 4.4119 164.02 5.3399C164.02 5.9799 163.881 6.5559 163.604 7.0679C163.326 7.5799 162.884 8.11857 162.276 8.6839L158.532 12.4919H163.892C164.009 12.4919 164.1 12.5239 164.164 12.5879C164.228 12.6519 164.26 12.7426 164.26 12.8599V13.0999C164.26 13.2066 164.222 13.2919 164.148 13.3559C164.084 13.4199 163.998 13.4519 163.892 13.4519H157.332ZM170.077 13.6119C169.33 13.6119 168.653 13.4839 168.045 13.2279C167.448 12.9719 166.973 12.5932 166.621 12.0919C166.269 11.5906 166.093 10.9932 166.093 10.2999C166.093 9.63857 166.253 9.0679 166.573 8.5879C166.893 8.1079 167.336 7.73457 167.901 7.4679C167.453 7.22257 167.106 6.89724 166.861 6.4919C166.616 6.0759 166.493 5.59057 166.493 5.0359C166.493 4.1079 166.829 3.3879 167.501 2.8759C168.184 2.35324 169.042 2.0919 170.077 2.0919C171.112 2.0919 171.965 2.35324 172.637 2.8759C173.32 3.3879 173.661 4.1079 173.661 5.0359C173.661 5.59057 173.533 6.0759 173.277 6.4919C173.032 6.89724 172.69 7.22257 172.253 7.4679C172.818 7.73457 173.261 8.1079 173.581 8.5879C173.901 9.0679 174.061 9.63857 174.061 10.2999C174.061 10.9932 173.885 11.5906 173.533 12.0919C173.181 12.5932 172.701 12.9719 172.093 13.2279C171.496 13.4839 170.824 13.6119 170.077 13.6119ZM170.077 7.0039C170.802 6.98257 171.41 6.7959 171.901 6.4439C172.402 6.0919 172.653 5.62257 172.653 5.0359C172.653 4.4279 172.408 3.9479 171.917 3.5959C171.426 3.23324 170.813 3.0519 170.077 3.0519C169.341 3.0519 168.728 3.23324 168.237 3.5959C167.746 3.9479 167.501 4.4279 167.501 5.0359C167.501 5.6439 167.746 6.1239 168.237 6.4759C168.728 6.8279 169.341 7.0039 170.077 7.0039ZM170.077 12.6519C170.92 12.6519 171.624 12.4386 172.189 12.0119C172.765 11.5852 173.053 11.0146 173.053 10.2999C173.053 9.5959 172.77 9.03057 172.205 8.6039C171.64 8.17724 170.93 7.9639 170.077 7.9639C169.224 7.9639 168.514 8.17724 167.949 8.6039C167.384 9.03057 167.101 9.5959 167.101 10.2999C167.101 11.0146 167.384 11.5852 167.949 12.0119C168.525 12.4386 169.234 12.6519 170.077 12.6519ZM180 13.6119C179.253 13.6119 178.576 13.4839 177.968 13.2279C177.37 12.9719 176.896 12.5932 176.544 12.0919C176.192 11.5906 176.016 10.9932 176.016 10.2999C176.016 9.63857 176.176 9.0679 176.496 8.5879C176.816 8.1079 177.258 7.73457 177.824 7.4679C177.376 7.22257 177.029 6.89724 176.784 6.4919C176.538 6.0759 176.416 5.59057 176.416 5.0359C176.416 4.1079 176.752 3.3879 177.424 2.8759C178.106 2.35324 178.965 2.0919 180 2.0919C181.034 2.0919 181.888 2.35324 182.56 2.8759C183.242 3.3879 183.584 4.1079 183.584 5.0359C183.584 5.59057 183.456 6.0759 183.2 6.4919C182.954 6.89724 182.613 7.22257 182.176 7.4679C182.741 7.73457 183.184 8.1079 183.504 8.5879C183.824 9.0679 183.984 9.63857 183.984 10.2999C183.984 10.9932 183.808 11.5906 183.456 12.0919C183.104 12.5932 182.624 12.9719 182.016 13.2279C181.418 13.4839 180.746 13.6119 180 13.6119ZM180 7.0039C180.725 6.98257 181.333 6.7959 181.824 6.4439C182.325 6.0919 182.576 5.62257 182.576 5.0359C182.576 4.4279 182.33 3.9479 181.84 3.5959C181.349 3.23324 180.736 3.0519 180 3.0519C179.264 3.0519 178.65 3.23324 178.16 3.5959C177.669 3.9479 177.424 4.4279 177.424 5.0359C177.424 5.6439 177.669 6.1239 178.16 6.4759C178.65 6.8279 179.264 7.0039 180 7.0039ZM180 12.6519C180.842 12.6519 181.546 12.4386 182.112 12.0119C182.688 11.5852 182.976 11.0146 182.976 10.2999C182.976 9.5959 182.693 9.03057 182.128 8.6039C181.562 8.17724 180.853 7.9639 180 7.9639C179.146 7.9639 178.437 8.17724 177.872 8.6039C177.306 9.03057 177.024 9.5959 177.024 10.2999C177.024 11.0146 177.306 11.5852 177.872 12.0119C178.448 12.4386 179.157 12.6519 180 12.6519ZM192.858 13.4519C192.559 13.4519 192.356 13.3186 192.25 13.0519L189.306 5.6279L189.274 5.4519C189.274 5.36657 189.306 5.2919 189.37 5.2279C189.434 5.1639 189.508 5.1319 189.594 5.1319H189.93C190.026 5.1319 190.1 5.15857 190.154 5.2119C190.218 5.26524 190.26 5.31857 190.282 5.3719L192.986 12.2839L195.69 5.3719C195.711 5.31857 195.748 5.26524 195.802 5.2119C195.866 5.15857 195.946 5.1319 196.042 5.1319H196.378C196.463 5.1319 196.538 5.1639 196.602 5.2279C196.666 5.2919 196.698 5.36657 196.698 5.4519L196.666 5.6279L193.722 13.0519C193.615 13.3186 193.412 13.4519 193.114 13.4519H192.858ZM201.491 13.6119C200.381 13.6119 199.517 13.2759 198.899 12.6039C198.291 11.9212 197.971 11.0412 197.939 9.9639L197.923 9.2919L197.939 8.6199C197.971 7.54257 198.291 6.6679 198.899 5.9959C199.517 5.31324 200.381 4.9719 201.491 4.9719C202.6 4.9719 203.459 5.31324 204.067 5.9959C204.685 6.6679 205.011 7.54257 205.043 8.6199C205.053 8.72657 205.059 8.95057 205.059 9.2919C205.059 9.63324 205.053 9.85724 205.043 9.9639C205.011 11.0412 204.685 11.9212 204.067 12.6039C203.459 13.2759 202.6 13.6119 201.491 13.6119ZM201.491 12.6839C202.248 12.6839 202.856 12.4439 203.315 11.9639C203.784 11.4732 204.035 10.7799 204.067 9.8839C204.077 9.77724 204.083 9.5799 204.083 9.2919C204.083 9.0039 204.077 8.80657 204.067 8.6999C204.035 7.8039 203.784 7.1159 203.315 6.6359C202.856 6.14524 202.248 5.8999 201.491 5.8999C200.733 5.8999 200.12 6.14524 199.651 6.6359C199.192 7.1159 198.947 7.8039 198.915 8.6999L198.899 9.2919L198.915 9.8839C198.947 10.7799 199.192 11.4732 199.651 11.9639C200.12 12.4439 200.733 12.6839 201.491 12.6839ZM209.983 13.4519C209.193 13.4519 208.633 13.2172 208.303 12.7479C207.972 12.2679 207.807 11.6119 207.807 10.7799V6.0599H206.559C206.452 6.0599 206.367 6.0279 206.303 5.9639C206.239 5.8999 206.207 5.81457 206.207 5.7079V5.4839C206.207 5.37724 206.239 5.2919 206.303 5.2279C206.367 5.1639 206.452 5.1319 206.559 5.1319H207.807V2.4439C207.807 2.33724 207.839 2.2519 207.903 2.1879C207.967 2.1239 208.052 2.0919 208.159 2.0919H208.431C208.537 2.0919 208.623 2.1239 208.687 2.1879C208.751 2.2519 208.783 2.33724 208.783 2.4439V5.1319H210.767C210.873 5.1319 210.959 5.1639 211.023 5.2279C211.087 5.2919 211.119 5.37724 211.119 5.4839V5.7079C211.119 5.81457 211.087 5.8999 211.023 5.9639C210.959 6.0279 210.873 6.0599 210.767 6.0599H208.783V10.7159C208.783 11.3132 208.879 11.7666 209.071 12.0759C209.273 12.3746 209.604 12.5239 210.063 12.5239H210.927C211.033 12.5239 211.119 12.5559 211.183 12.6199C211.247 12.6839 211.279 12.7692 211.279 12.8759V13.0999C211.279 13.2066 211.247 13.2919 211.183 13.3559C211.119 13.4199 211.033 13.4519 210.927 13.4519H209.983ZM216.053 13.6119C215.039 13.6119 214.223 13.2812 213.605 12.6199C212.986 11.9479 212.634 11.0519 212.549 9.9319L212.533 9.2919L212.549 8.6519C212.634 7.54257 212.981 6.6519 213.589 5.9799C214.207 5.3079 215.029 4.9719 216.053 4.9719C217.162 4.9719 218.026 5.3399 218.645 6.0759C219.274 6.8119 219.589 7.8199 219.589 9.0999V9.3399C219.589 9.44657 219.551 9.5319 219.477 9.5959C219.413 9.6599 219.327 9.6919 219.221 9.6919H213.525V9.8519C213.546 10.3532 213.658 10.8226 213.861 11.2599C214.074 11.6866 214.367 12.0332 214.741 12.2999C215.114 12.5559 215.551 12.6839 216.053 12.6839C216.639 12.6839 217.114 12.5719 217.477 12.3479C217.85 12.1132 218.117 11.8786 218.277 11.6439C218.373 11.5159 218.442 11.4359 218.485 11.4039C218.538 11.3719 218.629 11.3559 218.757 11.3559H219.013C219.109 11.3559 219.189 11.3826 219.253 11.4359C219.317 11.4892 219.349 11.5586 219.349 11.6439C219.349 11.8679 219.205 12.1399 218.917 12.4599C218.639 12.7692 218.25 13.0412 217.749 13.2759C217.247 13.4999 216.682 13.6119 216.053 13.6119ZM218.613 8.7959V8.7319C218.613 7.91057 218.378 7.23324 217.909 6.6999C217.45 6.16657 216.831 5.8999 216.053 5.8999C215.274 5.8999 214.655 6.16657 214.197 6.6999C213.749 7.23324 213.525 7.91057 213.525 8.7319V8.7959H218.613ZM224.371 13.6119C223.678 13.6119 223.091 13.4946 222.611 13.2599C222.142 13.0252 221.784 12.7586 221.539 12.4599C221.304 12.1612 221.187 11.9212 221.187 11.7399C221.187 11.6439 221.224 11.5692 221.299 11.5159C221.374 11.4519 221.454 11.4199 221.539 11.4199H221.779C221.854 11.4199 221.912 11.4359 221.955 11.4679C222.008 11.4892 222.067 11.5426 222.131 11.6279C222.366 11.9586 222.648 12.2199 222.979 12.4119C223.32 12.5932 223.784 12.6839 224.371 12.6839C225.032 12.6839 225.566 12.5612 225.971 12.3159C226.376 12.0599 226.579 11.6972 226.579 11.2279C226.579 10.9399 226.494 10.7052 226.323 10.5239C226.163 10.3426 225.896 10.1879 225.523 10.0599C225.16 9.92124 224.616 9.76657 223.891 9.5959C222.942 9.38257 222.291 9.08924 221.939 8.7159C221.598 8.34257 221.427 7.8679 221.427 7.2919C221.427 6.89724 221.534 6.5239 221.747 6.1719C221.971 5.8199 222.296 5.5319 222.723 5.3079C223.16 5.0839 223.683 4.9719 224.291 4.9719C224.931 4.9719 225.47 5.0839 225.907 5.3079C226.355 5.52124 226.686 5.7719 226.899 6.0599C227.123 6.3479 227.235 6.58257 227.235 6.7639C227.235 6.8599 227.198 6.9399 227.123 7.0039C227.059 7.05724 226.979 7.0839 226.883 7.0839H226.643C226.494 7.0839 226.376 7.01457 226.291 6.8759C226.078 6.5559 225.832 6.3159 225.555 6.1559C225.288 5.98524 224.867 5.8999 224.291 5.8999C223.672 5.8999 223.203 6.0279 222.883 6.2839C222.563 6.5399 222.403 6.8759 222.403 7.2919C222.403 7.5479 222.467 7.76124 222.595 7.9319C222.723 8.10257 222.963 8.26257 223.315 8.4119C223.667 8.55057 224.179 8.69457 224.851 8.8439C225.843 9.0679 226.542 9.36657 226.947 9.7399C227.352 10.1132 227.555 10.6092 227.555 11.2279C227.555 11.6652 227.432 12.0652 227.187 12.4279C226.942 12.7906 226.579 13.0786 226.099 13.2919C225.619 13.5052 225.043 13.6119 224.371 13.6119Z" fill="black" fill-opacity="0.3"/>
</svg>
